<?xml version="1.0" encoding="iso-8859-1"?>
<!-- Generator: Adobe Illustrator 18.1.1, SVG Export Plug-In . SVG Version: 6.00 Build 0)  -->
<svg version="1.1" id="Capa_1" xmlns="http://www.w3.org/2000/svg" xmlns:xlink="http://www.w3.org/1999/xlink" x="0px" y="0px"
	 viewBox="0 0 15 15" style="enable-background:new 0 0 15 15;" xml:space="preserve">
<g>
	<g>
		<path fill="#31BA8F" d="M7.5,0C3.358,0,0,3.358,0,7.5C0,11.643,3.358,15,7.5,15c4.143,0,7.5-3.357,7.5-7.5
			C15,3.358,11.643,0,7.5,0z M10.837,7.8L6.96,10.862c-0.217,0.171-0.569,0.171-0.786,0l0.002-0.002C6.069,10.782,6,10.671,6,10.546
			v-6.11c0-0.123,0.065-0.233,0.169-0.312l0.005-0.005c0.217-0.17,0.569-0.17,0.786,0l3.856,3.055l0.021,0.011
			C11.055,7.354,11.055,7.63,10.837,7.8z"/>
	</g>
</g>
<g>
</g>
<g>
</g>
<g>
</g>
<g>
</g>
<g>
</g>
<g>
</g>
<g>
</g>
<g>
</g>
<g>
</g>
<g>
</g>
<g>
</g>
<g>
</g>
<g>
</g>
<g>
</g>
<g>
</g>
</svg>
